<?xml version="1.0" encoding="UTF-8" standalone="no"?>
<!-- Created with Inkscape (http://www.inkscape.org/) -->

<svg
   xmlns:dc="http://purl.org/dc/elements/1.1/"
   xmlns:cc="http://creativecommons.org/ns#"
   xmlns:rdf="http://www.w3.org/1999/02/22-rdf-syntax-ns#"
   xmlns:svg="http://www.w3.org/2000/svg"
   xmlns="http://www.w3.org/2000/svg"
   xmlns:xlink="http://www.w3.org/1999/xlink"
   xmlns:sodipodi="http://sodipodi.sourceforge.net/DTD/sodipodi-0.dtd"
   xmlns:inkscape="http://www.inkscape.org/namespaces/inkscape"
   width="1840"
   height="1790"
   viewBox="0 0 1840 1790"
   id="svg2"
   version="1.1"
   inkscape:version="0.91 r13725"
   sodipodi:docname="wien.svg"
   preserveAspectRatio="xMidYMid slice">
  <defs
     id="defs4">
    <pattern
       y="0"
       x="0"
       height="6"
       width="6"
       patternUnits="userSpaceOnUse"
       id="EMFhbasepattern" />
    <pattern
       y="0"
       x="0"
       height="6"
       width="6"
       patternUnits="userSpaceOnUse"
       id="EMFhbasepattern-8" />
    <pattern
       y="0"
       x="0"
       height="6"
       width="6"
       patternUnits="userSpaceOnUse"
       id="EMFhbasepattern-1" />
    <pattern
       y="0"
       x="0"
       height="6"
       width="6"
       patternUnits="userSpaceOnUse"
       id="EMFhbasepattern-0" />
  </defs>
  <sodipodi:namedview
     id="base"
     pagecolor="#ffffff"
     bordercolor="#666666"
     borderopacity="1.0"
     inkscape:pageopacity="0.0"
     inkscape:pageshadow="2"
     inkscape:zoom="2.8"
     inkscape:cx="826.29146"
     inkscape:cy="991.8004"
     inkscape:document-units="px"
     inkscape:current-layer="layer1"
     showgrid="false"
     units="px"
     inkscape:snap-page="true"
     inkscape:snap-bbox="true"
     inkscape:bbox-nodes="true"
     inkscape:window-width="1920"
     inkscape:window-height="1018"
     inkscape:window-x="1912"
     inkscape:window-y="-8"
     inkscape:window-maximized="1"
     inkscape:snap-bbox-edge-midpoints="true"
     inkscape:snap-bbox-midpoints="true"
     inkscape:bbox-paths="true"
     inkscape:object-paths="true"
     inkscape:object-nodes="true" />
  <metadata
     id="metadata7">
    <rdf:RDF>
      <cc:Work
         rdf:about="">
        <dc:format>image/svg+xml</dc:format>
        <dc:type
           rdf:resource="http://purl.org/dc/dcmitype/StillImage" />
        <dc:title />
      </cc:Work>
    </rdf:RDF>
  </metadata>
  <style
     type="text/css"
     id="style6"><![CDATA[
      .pin {
        fill: #00926F;
        transition: fill 0.2s ease-in-out;
      }

      .label-1 #label-1 .pin {
        fill: #005384;
      }
      .label-2 #label-2 .pin {
        fill: #005384;
      }
      .label-3 #label-3 .pin {
        fill: #005384;
      }
      .label-4 #label-4 .pin {
        fill: #005384;
      }

      #label-1,#label-2,#label-3,#label-4 {
        cursor: pointer;
      }

    ]]></style>
  <g
     inkscape:label="Ebene 1"
     inkscape:groupmode="layer"
     id="layer1"
     transform="translate(0,737.63786)">
    <image
       sodipodi:absref="D:\LC-Projects\wien\src\course\en\images\wien_big.jpg"
       xlink:href="wien_big.jpg"
       y="-737.63788"
       x="0"
       id="image4155"
       preserveAspectRatio="none"
       height="1790"
       width="1840" />
    <rect
       style="opacity:1;fill:#ffffff;fill-opacity:0.41499999;stroke:none;stroke-width:3;stroke-linecap:butt;stroke-miterlimit:4;stroke-dasharray:6, 3;stroke-dashoffset:0;stroke-opacity:1"
       id="rect4373"
       width="1840"
       height="1790"
       x="0"
       y="-737.63788" />
    <g
       id="g4252"
       transform="matrix(0.18736709,0,0,0.18736709,-244.53323,127.72452)" />
    <g
       id="g4254"
       transform="matrix(0.18736709,0,0,0.18736709,-244.53323,127.72452)" />
    <g
       id="g4256"
       transform="matrix(0.18736709,0,0,0.18736709,-244.53323,127.72452)" />
    <g
       id="g4258"
       transform="matrix(0.18736709,0,0,0.18736709,-244.53323,127.72452)" />
    <g
       id="g4260"
       transform="matrix(0.18736709,0,0,0.18736709,-244.53323,127.72452)" />
    <g
       id="g4262"
       transform="matrix(0.18736709,0,0,0.18736709,-244.53323,127.72452)" />
    <g
       id="g4264"
       transform="matrix(0.18736709,0,0,0.18736709,-244.53323,127.72452)" />
    <g
       id="g4266"
       transform="matrix(0.18736709,0,0,0.18736709,-244.53323,127.72452)" />
    <g
       id="g4268"
       transform="matrix(0.18736709,0,0,0.18736709,-244.53323,127.72452)" />
    <g
       id="g4270"
       transform="matrix(0.18736709,0,0,0.18736709,-244.53323,127.72452)" />
    <g
       id="g4272"
       transform="matrix(0.18736709,0,0,0.18736709,-244.53323,127.72452)" />
    <g
       id="g4274"
       transform="matrix(0.18736709,0,0,0.18736709,-244.53323,127.72452)" />
    <g
       id="g4276"
       transform="matrix(0.18736709,0,0,0.18736709,-244.53323,127.72452)" />
    <g
       id="g4278"
       transform="matrix(0.18736709,0,0,0.18736709,-244.53323,127.72452)" />
    <g
       id="g4280"
       transform="matrix(0.18736709,0,0,0.18736709,-244.53323,127.72452)" />
    <path
       style="fill:none;fill-rule:evenodd;stroke:#808080;stroke-width:6;stroke-linecap:round;stroke-linejoin:miter;stroke-miterlimit:4;stroke-dasharray:none;stroke-opacity:1"
       d="M 958.57143,350.21924 852.14286,315.93354 742.85714,194.505 l 3.5178,-16.59139"
       id="path-1"
       inkscape:connector-curvature="0" />
    <path
       style="fill:#808080;fill-opacity:1;fill-rule:evenodd;stroke:#808080;stroke-width:6;stroke-linecap:round;stroke-linejoin:miter;stroke-miterlimit:4;stroke-dasharray:none;stroke-opacity:1"
       d="M 746.37494,177.91361 768.42605,73.91133"
       id="path-2"
       inkscape:connector-curvature="0" />
    <path
       style="fill:none;fill-rule:evenodd;stroke:#808080;stroke-width:6;stroke-linecap:round;stroke-linejoin:miter;stroke-miterlimit:4;stroke-dasharray:none;stroke-opacity:1"
       d="m 768.42605,73.91133 22.28824,-105.12062 18.57143,-15.71429 -65.71429,-101.42857"
       id="path-3"
       inkscape:connector-curvature="0" />
    <path
       style="fill:none;fill-rule:evenodd;stroke:#005384;stroke-width:6;stroke-linecap:round;stroke-linejoin:miter;stroke-miterlimit:4;stroke-dasharray:none;stroke-opacity:1"
       d="M 958.57143,350.21924 852.14286,315.93354 742.85714,194.505 790.71429,-31.20929 809.28572,-46.923576 743.57143,-148.35215"
       id="main"
       inkscape:connector-curvature="0"
       sodipodi:nodetypes="cccccc" />
    <circle
       style="opacity:1;fill:#808080;fill-opacity:1;stroke:none;stroke-width:5.83850765;stroke-linecap:round;stroke-miterlimit:4;stroke-dasharray:none;stroke-dashoffset:0;stroke-opacity:1"
       id="base-1"
       cx="961.61212"
       cy="351.23254"
       r="12.5" />
    <circle
       r="12.5"
       cy="178.95541"
       cx="747.36584"
       id="base-2"
       style="opacity:1;fill:#808080;fill-opacity:1;stroke:none;stroke-width:5.83850765;stroke-linecap:round;stroke-miterlimit:4;stroke-dasharray:none;stroke-dashoffset:0;stroke-opacity:1" />
    <circle
       style="opacity:1;fill:#808080;fill-opacity:1;stroke:none;stroke-width:5.83850765;stroke-linecap:round;stroke-miterlimit:4;stroke-dasharray:none;stroke-dashoffset:0;stroke-opacity:1"
       id="base-4"
       cx="742.54803"
       cy="-151.38806"
       r="12.5" />
    <g
       id="g4167"
       transform="matrix(0.18736709,0,0,0.18736709,808.52473,89.467724)" />
    <g
       id="g4169"
       transform="matrix(0.18736709,0,0,0.18736709,808.52473,89.467724)" />
    <g
       id="g4171"
       transform="matrix(0.18736709,0,0,0.18736709,808.52473,89.467724)" />
    <g
       id="g4173"
       transform="matrix(0.18736709,0,0,0.18736709,808.52473,89.467724)" />
    <g
       id="g4175"
       transform="matrix(0.18736709,0,0,0.18736709,808.52473,89.467724)" />
    <g
       id="g4177"
       transform="matrix(0.18736709,0,0,0.18736709,808.52473,89.467724)" />
    <g
       id="g4179"
       transform="matrix(0.18736709,0,0,0.18736709,808.52473,89.467724)" />
    <g
       id="g4181"
       transform="matrix(0.18736709,0,0,0.18736709,808.52473,89.467724)" />
    <g
       id="g4183"
       transform="matrix(0.18736709,0,0,0.18736709,808.52473,89.467724)" />
    <g
       id="g4185"
       transform="matrix(0.18736709,0,0,0.18736709,808.52473,89.467724)" />
    <g
       id="g4187"
       transform="matrix(0.18736709,0,0,0.18736709,808.52473,89.467724)" />
    <g
       id="g4189"
       transform="matrix(0.18736709,0,0,0.18736709,808.52473,89.467724)" />
    <g
       id="g4191"
       transform="matrix(0.18736709,0,0,0.18736709,808.52473,89.467724)" />
    <g
       id="g4193"
       transform="matrix(0.18736709,0,0,0.18736709,808.52473,89.467724)" />
    <g
       id="g4195"
       transform="matrix(0.18736709,0,0,0.18736709,808.52473,89.467724)" />
    <g
       id="g4377"
       transform="matrix(0.18736709,0,0,0.18736709,697.59073,-16.618162)" />
    <g
       id="g4379"
       transform="matrix(0.18736709,0,0,0.18736709,697.59073,-16.618162)" />
    <g
       id="g4381"
       transform="matrix(0.18736709,0,0,0.18736709,697.59073,-16.618162)" />
    <g
       id="g4383"
       transform="matrix(0.18736709,0,0,0.18736709,697.59073,-16.618162)" />
    <g
       id="g4385"
       transform="matrix(0.18736709,0,0,0.18736709,697.59073,-16.618162)" />
    <g
       id="g4387"
       transform="matrix(0.18736709,0,0,0.18736709,697.59073,-16.618162)" />
    <g
       id="g4389"
       transform="matrix(0.18736709,0,0,0.18736709,697.59073,-16.618162)" />
    <g
       id="g4391"
       transform="matrix(0.18736709,0,0,0.18736709,697.59073,-16.618162)" />
    <g
       id="g4393"
       transform="matrix(0.18736709,0,0,0.18736709,697.59073,-16.618162)" />
    <g
       id="g4395"
       transform="matrix(0.18736709,0,0,0.18736709,697.59073,-16.618162)" />
    <g
       id="g4397"
       transform="matrix(0.18736709,0,0,0.18736709,697.59073,-16.618162)" />
    <g
       id="g4399"
       transform="matrix(0.18736709,0,0,0.18736709,697.59073,-16.618162)" />
    <g
       id="g4401"
       transform="matrix(0.18736709,0,0,0.18736709,697.59073,-16.618162)" />
    <g
       id="g4403"
       transform="matrix(0.18736709,0,0,0.18736709,697.59073,-16.618162)" />
    <g
       id="g4405"
       transform="matrix(0.18736709,0,0,0.18736709,697.59073,-16.618162)" />
    <g
       id="g4425"
       transform="matrix(0.18736709,0,0,0.18736709,670.70364,-238.87575)" />
    <g
       id="g4427"
       transform="matrix(0.18736709,0,0,0.18736709,670.70364,-238.87575)" />
    <g
       id="g4429"
       transform="matrix(0.18736709,0,0,0.18736709,670.70364,-238.87575)" />
    <g
       id="g4431"
       transform="matrix(0.18736709,0,0,0.18736709,670.70364,-238.87575)" />
    <g
       id="g4433"
       transform="matrix(0.18736709,0,0,0.18736709,670.70364,-238.87575)" />
    <g
       id="g4435"
       transform="matrix(0.18736709,0,0,0.18736709,670.70364,-238.87575)" />
    <g
       id="g4437"
       transform="matrix(0.18736709,0,0,0.18736709,670.70364,-238.87575)" />
    <g
       id="g4439"
       transform="matrix(0.18736709,0,0,0.18736709,670.70364,-238.87575)" />
    <g
       id="g4441"
       transform="matrix(0.18736709,0,0,0.18736709,670.70364,-238.87575)" />
    <g
       id="g4443"
       transform="matrix(0.18736709,0,0,0.18736709,670.70364,-238.87575)" />
    <g
       id="g4445"
       transform="matrix(0.18736709,0,0,0.18736709,670.70364,-238.87575)" />
    <g
       id="g4447"
       transform="matrix(0.18736709,0,0,0.18736709,670.70364,-238.87575)" />
    <g
       id="g4449"
       transform="matrix(0.18736709,0,0,0.18736709,670.70364,-238.87575)" />
    <g
       id="g4451"
       transform="matrix(0.18736709,0,0,0.18736709,670.70364,-238.87575)" />
    <g
       id="g4453"
       transform="matrix(0.18736709,0,0,0.18736709,670.70364,-238.87575)" />
    <g
       id="label-4"
       transform="translate(1816.8338,-1.6931715)">
      <path
         style="fill-opacity:1;fill-rule:nonzero;stroke:none"
         d="m -1041.6047,-193.31911 0.064,0 -32.7445,43.62422 -32.7446,-43.62422 0.063,0 c -5.3975,-7.00616 -8.636,-15.72655 -8.636,-25.23038 -0.021,-22.83869 18.4784,-41.31705 41.3171,-41.31705 22.8385,0 41.317,18.47836 41.317,41.31705 0,9.50383 -3.2385,18.22422 -8.636,25.23038 z"
         id="path4321"
         inkscape:connector-curvature="0"
         class="pin" />
      <path
         style="fill:#fdfdfd;fill-opacity:1;fill-rule:nonzero;stroke:none"
         d="m -1040.6098,-217.95683 c 0,18.49939 -15.0072,33.50656 -33.5066,33.50656 -18.4995,0 -33.5066,-15.00717 -33.5066,-33.50656 0,-18.49955 15.0071,-33.5066 33.5066,-33.5066 18.4994,0 33.5066,15.00705 33.5066,33.5066 z"
         id="path4323"
         inkscape:connector-curvature="0" />
      <path
         style="fill:#008e68;fill-opacity:1;fill-rule:nonzero;stroke:none"
         d="m -1066.8562,-214.80299 0,3.81 -14.351,0 0,-14.56267 4.4873,0 0,10.75267 z"
         id="path4325"
         inkscape:connector-curvature="0" />
      <path
         style="fill:#008e68;fill-opacity:1;fill-rule:nonzero;stroke:none"
         d="m -1064.8242,-220.43333 c 0,-4.27566 2.3918,-5.334 6.392,-5.334 l 5.2494,0 c 6.35,0 7.1755,1.35467 7.1543,5.58801 l -4.4662,0 0,-0.46567 c 0,-1.03717 -0.762,-1.31234 -2.0955,-1.31234 l -4.8471,0 c -2.3492,0 -2.8996,1.10067 -2.8996,2.89984 l 0,1.5875 c 0,2.11666 0.5292,2.89983 2.6456,2.89983 l 4.7625,0 c 2.0108,0 2.6246,-0.23283 2.6246,-2.01083 l 4.5297,0 0,1.397 c 0,2.45533 -0.9737,4.445 -5.4187,4.445 l -7.1966,0 c -4.0214,0 -6.4132,-1.05834 -6.4132,-5.334 l 0,-4.36034 z"
         id="path4327"
         inkscape:connector-curvature="0" />
      <path
         style="fill:#008e68;fill-opacity:1;fill-rule:nonzero;stroke:none"
         d="m -1087.0915,-225.64033 1.6086,-2.58233 1.0584,-1.73566 -0.021,0.0423 0.1905,-0.3175 -0.1058,-0.0847 -3.5771,4.55084 -0.4022,0 -10.0753,0 c -2.6034,0 -4.7412,2.05316 -4.7412,4.67783 l 0,5.588 c 0,2.6035 2.1378,4.74133 4.7412,4.74133 l 10.0753,0 c 2.6034,0 4.6566,-2.13783 4.6566,-4.74133 l 0,-5.588 c 0.021,-2.20133 -1.4182,-4.0005 -3.4078,-4.55083 z m 2.032,-3.556 -10.1387,16.31951 -4.6567,-8.65717 4.5085,5.334 10.2869,-12.99634 z"
         id="path4329"
         inkscape:connector-curvature="0" />
    </g>
    <g
       id="label-1"
       transform="translate(1454.0615,632.14471)">
      <path
         style="fill-opacity:1;fill-rule:nonzero;stroke:none"
         d="m -459.76831,-324.63093 0.0635,0 -32.74456,43.62422 -32.7446,-43.62422 0.0635,0 c -5.39747,-7.00616 -8.63595,-15.72655 -8.63595,-25.23038 0,-22.83869 18.5207,-41.31705 41.31705,-41.31705 22.83856,0 41.31706,18.47836 41.31706,41.31705 0,9.50383 -3.2385,18.22422 -8.636,25.23038 z"
         id="path4353"
         inkscape:connector-curvature="0"
         class="pin" />
      <path
         style="fill:#fdfdfd;fill-opacity:1;fill-rule:nonzero;stroke:none"
         d="m -458.77348,-349.26865 c 0,18.49939 -15.00717,33.50656 -33.50655,33.50656 -18.49956,0 -33.50661,-15.00717 -33.50661,-33.50656 0,-18.49955 15.00705,-33.5066 33.50661,-33.5066 18.49938,0 33.50655,15.00705 33.50655,33.5066 z"
         id="path4355"
         inkscape:connector-curvature="0" />
      <path
         style="fill:#010202;fill-opacity:1;fill-rule:nonzero;stroke:none"
         d="m -493.1267,-338.91815 0.1905,-19.09233 -2.413,-10.47739 c 0,0 -8.42433,3.64064 -12.78458,5.16464 -4.38147,1.50275 -11.57808,5.31275 -11.57808,5.31275 l 7.11194,17.399 0,0 c 2.0955,5.67267 12.00139,7.42922 14.54139,6.56167 1.397,-0.48684 3.38666,-2.159 4.953,-4.318 l 0,-0.254 c -0.0212,-0.0847 -0.0212,-0.21167 -0.0212,-0.29634 z m -6.87917,-19.34633 c 1.7145,-0.59266 3.83117,1.016 4.16984,1.9685 0.33866,0.9525 -1.41817,0.42333 -3.13267,1.016 -1.7145,0.59267 -2.77283,2.0955 -3.1115,1.12183 -0.33867,-0.9525 0.33867,-3.51366 2.07433,-4.10633 z m -10.39272,6.90033 c -1.7145,0.59267 -2.7728,2.0955 -3.11147,1.143 -0.33866,-0.97366 0.33867,-3.53483 2.07431,-4.1275 1.7145,-0.59266 3.83114,1.01601 4.1698,1.9685 0.3175,0.97367 -1.41816,0.42334 -3.13264,1.016 z m 9.71539,9.73667 c -3.38667,1.16417 -5.58791,3.64067 -6.09591,2.18017 -0.508,-1.4605 1.12183,-5.6515 4.48724,-6.7945 3.38667,-1.16417 7.21784,1.12183 7.72584,2.58233 0.52916,1.50283 -2.7305,0.889 -6.11717,2.032 z m 31.83439,4.14867 0,0 2.286,-18.64783 c 0,0 -7.95867,-1.79917 -12.57272,-2.0955 -4.61434,-0.29634 -12.72117,0.42333 -12.72117,0.42333 l -0.1905,18.796 0,0 c -0.29633,6.05338 8.17033,11.49322 10.8585,11.66255 3.45017,0.23283 11.78955,-4.1275 12.33989,-10.13855 z m -20.29856,-10.75267 c 0.0635,-1.016 1.69334,-3.13267 3.4925,-2.9845 1.82034,0.10583 3.13267,2.43417 3.09034,3.45017 -0.0635,1.016 -1.48167,-0.14817 -3.302,-0.254 -1.82034,-0.14817 -3.3655,0.80433 -3.28084,-0.21167 z m 8.4455,13.67367 c -3.556,-0.23284 -6.223,-3.85233 -6.13833,-5.3975 0.127,-1.54517 2.87867,0.254 6.43467,0.508 3.556,0.23283 6.56138,-1.2065 6.47672,0.33866 -0.127,1.5875 -3.21706,4.80484 -6.77306,4.55084 z m 6.87889,-12.7 c -1.79917,-0.127 -3.36522,0.84666 -3.30172,-0.16934 0.0635,-1.01599 1.69305,-3.13266 3.49222,-3.00566 1.82033,0.127 3.13267,2.43416 3.09033,3.45016 -0.0635,1.016 -1.43933,-0.14816 -3.28083,-0.27516 z"
         id="path4357"
         inkscape:connector-curvature="0" />
    </g>
    <circle
       r="12.5"
       cy="70.869522"
       cx="769.43512"
       id="base-3"
       style="opacity:1;fill:#808080;fill-opacity:1;stroke:none;stroke-width:5.83850765;stroke-linecap:round;stroke-miterlimit:4;stroke-dasharray:none;stroke-dashoffset:0;stroke-opacity:1" />
    <g
       id="label-2"
       transform="matrix(-1,0,0,1,289.30254,139.55349)">
      <path
         inkscape:connector-curvature="0"
         id="path4549"
         d="m -414.43909,72.06184 0,0.0423 -43.62421,-32.70222 43.62421,-32.74461 0,0.0635 c 7.00616,-5.39747 15.72655,-8.63594 25.23038,-8.63594 22.83869,0 41.31705,18.52069 41.31705,41.31705 0,22.83855 -18.47836,41.31705 -41.31705,41.31705 -9.50383,-0.0212 -18.22422,-3.28083 -25.23038,-8.65716 z"
         style="fill-opacity:1;fill-rule:nonzero;stroke:none"
         class="pin" />
      <path
         style="fill:#fdfdfd;fill-opacity:1;fill-rule:nonzero;stroke:none"
         d="m -355.57513,39.99458 c 0,18.49939 -14.986,33.50656 -33.48538,33.50656 -18.49955,0 -33.50662,-15.00717 -33.50662,-33.50656 0,-18.49955 15.00707,-33.5066 33.50662,-33.5066 18.49937,0 33.48538,15.00705 33.48538,33.5066 z"
         id="path4427"
         inkscape:connector-curvature="0" />
      <path
         style="fill:#010202;fill-opacity:1;fill-rule:nonzero;stroke:none"
         d="m -370.05313,44.22792 -15.59956,0 0,-6.6675 5.86318,0 c 1.016,0 1.82033,-0.80434 1.82033,-1.79917 l 1.79917,-3.02683 c 0,-1.016 -0.8255,-1.79917 -1.79917,-1.79917 l -7.6835,0 0,-0.0635 -1.10066,-3.25966 c 0,-0.55034 -0.1905,-0.91017 -0.4445,-1.143 0.0212,-0.0847 0.0423,-0.12701 0.0847,-0.21159 l -0.762,-0.33866 c -0.0423,0.0212 -0.0423,0.0847 -0.0635,0.10583 -0.254,-0.0847 -0.48684,-0.10583 -0.48684,-0.10583 0,0 -0.10583,0 -0.27516,0.0423 0,-0.0212 -0.0212,-0.0423 -0.0212,-0.0847 l -0.762,0.33866 c 0,0.0423 0.0212,0.0635 0.0212,0.0847 -0.33867,0.25392 -0.61384,0.65608 -0.61384,1.26992 l -1.10066,3.34433 0,0 -8.255,0 c -1.016,0 -1.79917,0.80433 -1.79917,1.79917 l 1.9685,3.02683 c 0,1.016 0.8255,1.79917 1.82033,1.79917 l 6.2865,0 0,6.6675 -16.15005,0 c -1.73567,0 -3.15381,1.48166 -3.15381,3.32316 l 3.40781,5.56684 c 0,1.82033 1.41814,3.32288 3.17496,3.32288 l 30.73364,0 c 1.73567,0 3.15384,-1.50255 3.15384,-3.32288 l 3.15383,-5.56684 c -0.0847,-1.79916 -1.48167,-3.302 -3.21733,-3.302 z m -33.01963,-15.98084 -0.78317,-0.21166 0,0 c -0.10584,0.35983 -0.1905,0.71966 -0.27517,1.10066 l 0.80433,0.16934 c 0.0847,-0.33867 0.16933,-0.71967 0.25401,-1.05833 z m 4.69891,-6.87905 -0.40217,-0.74083 c -0.33866,0.16933 -0.67733,0.40216 -0.99482,0.65616 l 0.50799,0.65617 c 0.29633,-0.23283 0.59267,-0.42333 0.889,-0.5715 z m -1.651,1.27 -0.59267,-0.59267 c -0.254,0.27517 -0.50799,0.5715 -0.762,0.86781 l 0.65617,0.508 c 0.23283,-0.27517 0.4445,-0.55033 0.6985,-0.78314 z m -3.49241,7.72572 -0.8255,-0.127 c -0.0423,0.35983 -0.10583,0.71967 -0.127,1.12184 l 0.80433,0.0847 c 0.0423,-0.35983 0.0847,-0.6985 0.14817,-1.0795 z m 1.18533,-4.14858 -0.762,-0.33867 c -0.14816,0.33867 -0.27517,0.71958 -0.42333,1.07942 l 0.78316,0.27516 c 0.127,-0.35983 0.25401,-0.6985 0.40216,-1.01591 z m 11.87442,-3.302 c -0.25401,-0.29631 -0.508,-0.59264 -0.762,-0.86781 l -0.59267,0.59267 c 0.254,0.25397 0.48683,0.50797 0.71967,0.78314 l 0.635,-0.508 z m -10.87967,1.397 -0.71966,-0.46567 c -0.1905,0.3175 -0.38092,0.65617 -0.55025,0.99484 l 0.71958,0.40216 c 0.16933,-0.3175 0.33867,-0.65616 0.55033,-0.93133 z m 11.3665,0.9525 0.74084,-0.40217 c -0.16934,-0.33866 -0.381,-0.67733 -0.57151,-0.97366 l -0.6985,0.4445 c 0.1905,0.27516 0.35983,0.59266 0.52916,0.93133 z m -4.16983,-5.10114 c -0.381,-0.127 -0.762,-0.21167 -1.16417,-0.254 l -0.0847,0.80433 c 0.33866,0.0423 0.67734,0.127 0.99484,0.23284 l 0.254,-0.78317 z m -2.286,0.59267 -0.0847,-0.8255 0,0 c -0.40217,0.0212 -0.80433,0.10583 -1.16417,0.254 l 0.254,0.78316 c 0.3175,-0.10583 0.65617,-0.1905 0.99484,-0.21166 z m 4.33917,0.52916 c -0.3175,-0.254 -0.65617,-0.4445 -0.99484,-0.65616 l -0.381,0.74083 c 0.27517,0.16933 0.59267,0.35983 0.86784,0.5715 l 0.508,-0.65617 z m -12.44592,20.06589 0.8255,-0.0212 c 0,-0.33867 -0.0423,-0.71967 -0.0423,-1.10067 l -0.80433,0.0212 0,0 c 0,0.35984 0.0212,0.74084 0.0212,1.10067 z m 0.762,-4.46617 0,-0.27516 0,-0.84667 -0.84667,0 0,0 0,0.84667 0,0.27516 0.84667,0 z m 0.23283,6.58284 c -0.0635,-0.3175 -0.0847,-0.67734 -0.127,-1.0795 l -0.80433,0.0635 c 0.0212,0.40216 0.0423,0.78316 0.10583,1.12183 l 0.8255,-0.10583 z m -0.23283,-9.906 c 0,-0.33867 0,-0.67733 0.0212,-1.016 l -0.80433,-0.0212 0,0 c -0.0423,0.33867 -0.0423,0.6985 -0.0423,1.03716 l 0,1.10067 0.84666,0 c -0.0212,-0.35983 -0.0212,-0.74083 -0.0212,-1.10067 z m -0.8255,4.42383 0,1.10067 0.84667,0 0,-1.10067 -0.84667,0 z m 31.28397,-8.67833 0.80433,-0.16934 c -0.0847,-0.381 -0.16933,-0.74083 -0.27517,-1.10066 l -0.78288,0.21166 c 0.0847,0.33867 0.1905,0.71967 0.25372,1.05834 z m 1.27,6.45583 -0.84667,0 0,1.10067 0.84667,0 0,-1.10067 z m -0.8255,-2.20133 0,1.10066 0.84666,0 0,-1.10066 c 0,-0.35983 0,-0.6985 -0.0212,-1.03717 l -0.8255,0.0212 0,1.016 z m -0.254,-3.19617 c 0.0635,0.381 0.10583,0.71967 0.14816,1.0795 l 0.80434,-0.0847 c -0.0212,-0.35983 -0.0847,-0.762 -0.127,-1.12183 l -0.8255,0.127 0,0 z m 1.0795,7.62 -0.84667,0 0,0 0,1.10067 0.84667,0 0,-1.10067 z m -14.09672,-13.65241 -0.6985,-0.4445 c -0.1905,0.29633 -0.40217,0.635 -0.5715,0.97366 l 0.74083,0.40217 c 0.16934,-0.33867 0.33867,-0.65617 0.52917,-0.93133 z m 12.2555,2.87858 0.78288,-0.27517 c -0.10584,-0.381 -0.25401,-0.71958 -0.42305,-1.07941 l -0.762,0.33866 c 0.14817,0.33858 0.254,0.67725 0.40217,1.01592 z m 1.79888,13.0175 -0.80433,-0.0423 c 0,0.40216 -0.0423,0.762 -0.0423,1.10066 l 0.84667,0.0423 0,-1.10066 z m -1.016,3.2385 0.82549,0.10583 c 0.0635,-0.33867 0.0847,-0.6985 0.10584,-1.12183 l -0.80434,-0.0635 c -0.0423,0.40216 -0.0847,0.762 -0.127,1.0795 z m -1.65071,-18.22442 0.71965,-0.40216 c -0.16933,-0.33867 -0.35983,-0.67734 -0.55032,-0.99484 l -0.71967,0.46567 c 0.21167,0.27517 0.38099,0.61383 0.55034,0.93133 z m -8.42435,-3.87347 -0.38099,-0.74083 c -0.33866,0.21166 -0.67733,0.40216 -0.99483,0.65616 l 0.508,0.65617 c 0.27517,-0.23283 0.59267,-0.40217 0.86783,-0.5715 z m -1.62983,1.27 -0.59267,-0.59267 c -0.254,0.27517 -0.508,0.5715 -0.762,0.86781 l 0.65617,0.508 c 0.21167,-0.27517 0.4445,-0.52917 0.6985,-0.78314 z m 3.57717,-1.88383 -0.0847,-0.8255 c -0.38099,0.0635 -0.78317,0.14816 -1.14299,0.254 l 0.254,0.78316 c 0.29633,-0.10583 0.635,-0.1905 0.97366,-0.21166 z m 5.99016,2.15897 c -0.254,-0.29631 -0.508,-0.59264 -0.762,-0.86781 l -0.59266,0.59267 c 0.254,0.25397 0.48683,0.50797 0.6985,0.78314 l 0.65616,-0.508 z m -3.70416,-2.75164 c -0.35984,-0.127 -0.762,-0.21167 -1.14299,-0.254 l -0.0847,0.80433 c 0.33866,0.0423 0.67732,0.127 0.97366,0.21167 l 0.254,-0.762 z m 2.07433,1.12183 c -0.3175,-0.254 -0.65617,-0.4445 -0.99483,-0.65616 l -0.40217,0.74083 c 0.29633,0.16933 0.59267,0.35983 0.889,0.5715 l 0.508,-0.65617 z m -1.397,0.0847 0,0 0,0 0,0 z"
         id="path4429"
         inkscape:connector-curvature="0" />
    </g>
    <g
       id="label-3"
       transform="matrix(-1,0,0,1,421.49625,-40.55975)">
      <path
         style="fill-opacity:1;fill-rule:nonzero;stroke:none"
         d="m -391.56308,78.748215 0,-0.0635 43.62421,32.744555 -43.62421,32.74461 0,-0.0635 c -7.00617,5.39747 -15.72655,8.63595 -25.23039,8.63595 -22.83868,0 -41.31705,-18.5207 -41.31705,-41.31706 0,-22.838555 18.47837,-41.317055 41.31705,-41.317055 9.50383,0 18.22422,3.2385 25.23039,8.636 z"
         id="path4377"
         inkscape:connector-curvature="0"
         class="pin" />
      <path
         style="fill:#fdfdfd;fill-opacity:1;fill-rule:nonzero;stroke:none"
         d="m -383.09736,111.42929 c 0,18.49939 -15.00717,33.50656 -33.50655,33.50656 -18.49955,0 -33.50661,-15.00717 -33.50661,-33.50656 0,-18.499547 15.00706,-33.506597 33.50661,-33.506597 18.49938,0 33.50655,15.00705 33.50655,33.506597 z"
         id="path4379"
         inkscape:connector-curvature="0" />
      <path
         style="fill:#010202;fill-opacity:1;fill-rule:nonzero;stroke:none"
         d="m -402.69741,109.24913 c 0,0 -0.10583,-5.29167 -3.00567,-9.397997 -2.921,-4.085081 -6.30766,-5.10108 -6.30766,-5.10108 l 0,-0.78314 -1.778,0 0,-5.67264 c 0,0 -0.0212,-1.27 -0.71967,-2.18014 -0.71967,-0.91017 -1.50283,-1.16417 -1.50283,-1.16417 l 0,-0.61383 -0.254,-0.254 0,-0.508 0.3175,0 0,-0.508 -0.3175,0 0,-0.6138 -0.61384,-0.0423 0,0.63497 -0.3175,0 0,0.508 0.3175,0 0,0.46566 -0.254,0.254 0,0.635 c 0,0 -0.80433,0.254 -1.50283,1.14301 -0.6985,0.91013 -0.74083,2.18013 -0.74083,2.18013 l 0,5.67264 -1.778,0 0,0.78314 c 0,0 -3.38667,1.016 -6.2865,5.12225 -2.89975,4.085157 -3.02675,9.397997 -3.02675,9.397997 l 27.77058,0.0423 z"
         id="path4381"
         inkscape:connector-curvature="0" />
      <path
         style="fill:#010202;fill-opacity:1;fill-rule:nonzero;stroke:none"
         d="m -430.51033,110.24396 3.57709,0 0,15.5575 -3.57709,0 z"
         id="path4383"
         inkscape:connector-curvature="0" />
      <path
         style="fill:#010202;fill-opacity:1;fill-rule:nonzero;stroke:none"
         d="m -422.42474,110.24396 3.59833,0 0,15.5575 -3.59833,0 z"
         id="path4385"
         inkscape:connector-curvature="0" />
      <path
         style="fill:#010202;fill-opacity:1;fill-rule:nonzero;stroke:none"
         d="m -414.33908,110.24396 3.57717,0 0,15.5575 -3.57717,0 z"
         id="path4387"
         inkscape:connector-curvature="0" />
      <path
         style="fill:#010202;fill-opacity:1;fill-rule:nonzero;stroke:none"
         d="m -406.25341,110.24396 3.59833,0 0,15.5575 -3.59833,0 z"
         id="path4389"
         inkscape:connector-curvature="0" />
      <path
         style="fill:#010202;fill-opacity:1;fill-rule:nonzero;stroke:none"
         d="m -433.13499,126.77485 33.1043,0 0,3.59833 -33.1043,0 z"
         id="path4391"
         inkscape:connector-curvature="0" />
      <path
         style="fill:#010202;fill-opacity:1;fill-rule:nonzero;stroke:none"
         d="m -436.4158,131.34685 39.68711,0 0,3.59833 -39.68711,0 z"
         id="path4393"
         inkscape:connector-curvature="0" />
    </g>
  </g>
</svg>
